HIERARCHY
ROOT hip
{
  OFFSET 0.00112043 5.09927 -9.65472
  CHANNELS 6 Xposition Yposition Zposition Zrotation Xrotation Yrotation
  JOINT abdomen
  {
    OFFSET 0 -1.186 -1.5018
    CHANNELS 3 Zrotation Xrotation Yrotation
    JOINT abdomen2
    {
      OFFSET 0 9.964 0.2134
      CHANNELS 3 Zrotation Xrotation Yrotation
      JOINT chest
      {
        OFFSET 0 13.134 -3.2573
        CHANNELS 3 Zrotation Xrotation Yrotation
        JOINT neck
        {
          OFFSET 0 20.686 -1.6905
          CHANNELS 3 Zrotation Xrotation Yrotation
          JOINT head
          {
            OFFSET 0 7.238 -0.1237
            CHANNELS 3 Zrotation Xrotation Yrotation
            End Site
            {
              OFFSET 0 0 0
            }
          }
        }
        JOINT lCollar
        {
          OFFSET 1.7069 20.075 5.0056
          CHANNELS 3 Zrotation Xrotation Yrotation
          JOINT lShldr
          {
            OFFSET 13.6458 -0.047 -4.849
            CHANNELS 3 Zrotation Xrotation Yrotation
            JOINT lForeArm
            {
              OFFSET 28.3255 -0.9759 2.2888
              CHANNELS 3 Zrotation Xrotation Yrotation
              JOINT lHand
              {
                OFFSET 22.1583 -0.53 10.8316
                CHANNELS 3 Zrotation Xrotation Yrotation
                JOINT lThumb1
                {
                  OFFSET 0.786 0.112 2.5817
                  CHANNELS 3 Zrotation Xrotation Yrotation
                  JOINT lThumb2
                  {
                    OFFSET 0.3601 -0.878 4.2331
                    CHANNELS 3 Zrotation Xrotation Yrotation
                    JOINT lThumb2_End
                    {
                      OFFSET 1.8127 -1.216 2.2227
                      CHANNELS 3 Zrotation Xrotation Yrotation
                      End Site
                      {
                        OFFSET 0.0181 -0.0122 0.0222
                      }
                    }
                  }
                }
                JOINT lCarpal1
                {
                  OFFSET 0.9571 1.114 1.7695
                  CHANNELS 3 Zrotation Xrotation Yrotation
                  JOINT lIndex1
                  {
                    OFFSET 4.1246 0.487 4.1451
                    CHANNELS 3 Zrotation Xrotation Yrotation
                    JOINT lIndex2
                    {
                      OFFSET 3.4052 -1.454 2.7682
                      CHANNELS 3 Zrotation Xrotation Yrotation
                      JOINT lIndex2_End
                      {
                        OFFSET 1.4531 -1.795 1.2713
                        CHANNELS 3 Zrotation Xrotation Yrotation
                        End Site
                        {
                          OFFSET 0.0145 -0.0179 0.0127
                        }
                      }
                    }
                  }
                  JOINT lMid1
                  {
                    OFFSET 5.6954 0.21 2.1184
                    CHANNELS 3 Zrotation Xrotation Yrotation
                    JOINT lMid2
                    {
                      OFFSET 3.9766 -1.54 2.3863
                      CHANNELS 3 Zrotation Xrotation Yrotation
                      JOINT lMid2_End
                      {
                        OFFSET 1.4042 -1.926 1.125
                        CHANNELS 3 Zrotation Xrotation Yrotation
                        End Site
                        {
                          OFFSET 0.014 -0.0193 0.0113
                        }
                      }
                    }
                  }
                }
                JOINT lCarpal2
                {
                  OFFSET 2.0956 0.66 -0.3894
                  CHANNELS 3 Zrotation Xrotation Yrotation
                  JOINT lRing1
                  {
                    OFFSET 5.0395 -0.09 2.4971
                    CHANNELS 3 Zrotation Xrotation Yrotation
                    JOINT lRing2
                    {
                      OFFSET 3.7921 -1.552 1.4806
                      CHANNELS 3 Zrotation Xrotation Yrotation
                      JOINT lRing2_End
                      {
                        OFFSET 1.4655 -1.808 0.9609
                        CHANNELS 3 Zrotation Xrotation Yrotation
                        End Site
                        {
                          OFFSET 0.0147 -0.0181 0.0096
                        }
                      }
                    }
                  }
                  JOINT lPinky1
                  {
                    OFFSET 4.9141 -1.269 0.3591
                    CHANNELS 3 Zrotation Xrotation Yrotation
                    JOINT lPinky2
                    {
                      OFFSET 3.1477 -1.685 0.8462
                      CHANNELS 3 Zrotation Xrotation Yrotation
                      JOINT lPinky2_End
                      {
                        OFFSET 0.8055 -1.585 0.7955
                        CHANNELS 3 Zrotation Xrotation Yrotation
                        End Site
                        {
                          OFFSET 0.0081 -0.0158 0.008
                        }
                      }
                    }
                  }
                }
              }
            }
          }
        }
        JOINT rCollar
        {
          OFFSET -1.7069 20.075 5.0056
          CHANNELS 3 Zrotation Xrotation Yrotation
          JOINT rShldr
          {
            OFFSET -13.6458 -0.047 -4.849
            CHANNELS 3 Zrotation Xrotation Yrotation
            JOINT rForeArm
            {
              OFFSET -28.3255 -0.9759 2.2888
              CHANNELS 3 Zrotation Xrotation Yrotation
              JOINT rHand
              {
                OFFSET -22.1583 -0.53 10.8316
                CHANNELS 3 Zrotation Xrotation Yrotation
                JOINT rThumb1
                {
                  OFFSET -0.786 0.112 2.5817
                  CHANNELS 3 Zrotation Xrotation Yrotation
                  JOINT rThumb2
                  {
                    OFFSET -0.3601 -0.878 4.2331
                    CHANNELS 3 Zrotation Xrotation Yrotation
                    JOINT rThumb2_End
                    {
                      OFFSET -1.8127 -1.216 2.2227
                      CHANNELS 3 Zrotation Xrotation Yrotation
                      End Site
                      {
                        OFFSET -0.0181 -0.0122 0.0222
                      }
                    }
                  }
                }
                JOINT rCarpal1
                {
                  OFFSET -0.9571 1.114 1.7695
                  CHANNELS 3 Zrotation Xrotation Yrotation
                  JOINT rIndex1
                  {
                    OFFSET -4.1246 0.487 4.1451
                    CHANNELS 3 Zrotation Xrotation Yrotation
                    JOINT rIndex2
                    {
                      OFFSET -3.4052 -1.454 2.7682
                      CHANNELS 3 Zrotation Xrotation Yrotation
                      JOINT rIndex2_End
                      {
                        OFFSET -1.4531 -1.795 1.2713
                        CHANNELS 3 Zrotation Xrotation Yrotation
                        End Site
                        {
                          OFFSET -0.0145 -0.018 0.0127
                        }
                      }
                    }
                  }
                  JOINT rMid1
                  {
                    OFFSET -5.6954 0.21 2.1184
                    CHANNELS 3 Zrotation Xrotation Yrotation
                    JOINT rMid2
                    {
                      OFFSET -3.9766 -1.54 2.3863
                      CHANNELS 3 Zrotation Xrotation Yrotation
                      JOINT rMid2_End
                      {
                        OFFSET -1.4042 -1.926 1.125
                        CHANNELS 3 Zrotation Xrotation Yrotation
                        End Site
                        {
                          OFFSET -0.014 -0.0193 0.0113
                        }
                      }
                    }
                  }
                }
                JOINT rCarpal2
                {
                  OFFSET -2.0956 0.66 -0.3894
                  CHANNELS 3 Zrotation Xrotation Yrotation
                  JOINT rRing1
                  {
                    OFFSET -5.0395 -0.09 2.4971
                    CHANNELS 3 Zrotation Xrotation Yrotation
                    JOINT rRing2
                    {
                      OFFSET -3.7921 -1.552 1.4806
                      CHANNELS 3 Zrotation Xrotation Yrotation
                      JOINT rRing2_End
                      {
                        OFFSET -1.4655 -1.808 0.9609
                        CHANNELS 3 Zrotation Xrotation Yrotation
                        End Site
                        {
                          OFFSET -0.0147 -0.0181 0.0096
                        }
                      }
                    }
                  }
                  JOINT rPinky1
                  {
                    OFFSET -4.9141 -1.269 0.3592
                    CHANNELS 3 Zrotation Xrotation Yrotation
                    JOINT rPinky2
                    {
                      OFFSET -3.1477 -1.685 0.8462
                      CHANNELS 3 Zrotation Xrotation Yrotation
                      JOINT rPinky2_End
                      {
                        OFFSET -0.8055 -1.585 0.7955
                        CHANNELS 3 Zrotation Xrotation Yrotation
                        End Site
                        {
                          OFFSET -0.0081 -0.0158 0.008
                        }
                      }
                    }
                  }
                }
              }
            }
          }
        }
      }
    }
  }
  JOINT lThigh
  {
    OFFSET 8.367 -8.2066 0.5982
    CHANNELS 3 Zrotation Xrotation Yrotation
    JOINT lShin
    {
      OFFSET 2.1923 -43.463 -0.4932
      CHANNELS 3 Zrotation Xrotation Yrotation
      JOINT lFoot
      {
        OFFSET 0.7333 -45.8593 -2.6451
        CHANNELS 3 Zrotation Xrotation Yrotation
        End Site
        {
          OFFSET 2.6618 -4.2699 12.3931
        }
      }
    }
  }
  JOINT rThigh
  {
    OFFSET -8.367 -8.2066 0.5982
    CHANNELS 3 Zrotation Xrotation Yrotation
    JOINT rShin
    {
      OFFSET -2.1923 -43.463 -0.4931
      CHANNELS 3 Zrotation Xrotation Yrotation
      JOINT rFoot
      {
        OFFSET -0.7333 -45.8593 -2.6451
        CHANNELS 3 Zrotation Xrotation Yrotation
        End Site
        {
          OFFSET -2.6618 -4.2699 12.3931
        }
      }
    }
  }
}
MOTION
Frames:	4
Frame Time:	0.0333333
0 91.7903 2.51682 0 0 -0 0 0 -0 0 0 -0 0 0 -0 0 0 -0 0.00553454 0 -0 0 0 -0 1.66051 0.0835086 5.75766 -0.0175111 0.895433 15.7816 7.95139e-016 -1.98785e-016 -0 5.46658e-016 -3.97569e-016 -0 5.96354e-016 0 -0 3.97569e-016 1.98785e-016 9.54166e-015 1.49089e-016 -3.97569e-016 -0 6.4605e-016 0 3.18055e-015 5.96354e-016 0 3.18055e-015 8.94531e-016 -1.98785e-016 6.36111e-015 6.4605e-016 0 3.18055e-015 5.96354e-016 0 3.18055e-015 8.94531e-016 -1.98785e-016 6.36111e-015 1.49089e-016 -3.97569e-016 -0 6.4605e-016 0 3.18055e-015 5.96354e-016 0 3.18055e-015 8.94531e-016 -1.98785e-016 6.36111e-015 6.4605e-016 0 3.18055e-015 5.96354e-016 0 3.18055e-015 8.94531e-016 -1.98785e-016 6.36111e-015 0 0 -0 -1.4496 0.0636048 -5.0245 -1.74811 1.20616 -16.8394 -1.19271e-015 1.98785e-016 -3.18055e-015 -3.97569e-016 1.98785e-016 -3.18055e-015 -2.98177e-016 1.98785e-016 -3.18055e-015 -2.98177e-016 3.97569e-016 -0 4.96962e-016 0 -6.36111e-015 -9.93923e-017 3.97569e-016 -0 -8.94531e-016 5.96354e-016 -0 -3.97569e-016 3.97569e-016 -0 -9.93923e-017 3.97569e-016 -0 -8.94531e-016 5.96354e-016 -0 -3.97569e-016 3.97569e-016 -0 4.96962e-016 0 -6.36111e-015 -9.93923e-017 3.97569e-016 -0 -8.94531e-016 5.96354e-016 -0 -3.97569e-016 3.97569e-016 -0 -9.93923e-017 3.97569e-016 -0 -8.94531e-016 5.96354e-016 -0 -3.97569e-016 3.97569e-016 -0 -4.66111 -0.998717 0.12318 0.00986924 1.54847 0.176523 4.65186 -0.572283 -0.254274 4.66111 -0.998765 -0.123176 -0.00986867 1.54869 -0.176537 -4.65186 -0.572453 0.25427 
0.310816 -3.7056 -77.1177 -0 -63.0022 -0 0 2.79922 -0 0 5.59845 -0 0 5.59842 -0 0 31.0001 -0 0.00636394 0.274518 -0.173106 0 5.51112e-005 -0 -74.8197 1.1523 46.745 -0.601319 -1.41207 -65.1954 -12.1095 4.76025 0.283578 -5.79899e-006 -7.29698e-007 4.22686e-006 -1.45168e-006 2.17366e-006 1.84835e-006 -2.51515e-006 5.19747e-006 2.43682e-006 -9.93923e-017 1.39149e-015 -6.36111e-015 -5.79899e-006 -7.29698e-007 4.22686e-006 -1.45168e-006 2.17366e-006 1.84835e-006 -2.51515e-006 5.19747e-006 2.43682e-006 -5.79899e-006 -7.29698e-007 4.22686e-006 -1.45168e-006 2.17366e-006 1.84835e-006 -2.51515e-006 5.19747e-006 2.43682e-006 -9.93923e-017 1.39149e-015 -6.36111e-015 -5.79899e-006 -7.29698e-007 4.22686e-006 -1.45168e-006 2.17366e-006 1.84835e-006 -2.51515e-006 5.19747e-006 2.43682e-006 -5.79899e-006 -7.29698e-007 4.22686e-006 -1.45168e-006 2.17366e-006 1.84835e-006 -2.51515e-006 5.19747e-006 2.43682e-006 2.49085e-007 5.46118e-005 10.9996 70.2887 27.0547 20.6769 2.26301 3.03466 1.23303 34.7322 31.1263 -1.20255 -3.18055e-015 6.36111e-015 -0 3.18055e-015 5.56597e-015 -1.59028e-015 6.36111e-015 1.59028e-015 -2.38542e-015 -3.18055e-015 3.18055e-015 -0 3.18055e-015 4.77083e-015 2.38542e-015 6.36111e-015 2.38542e-015 -1.59028e-015 1.27222e-014 6.36111e-015 -7.95139e-016 3.18055e-015 4.77083e-015 2.38542e-015 6.36111e-015 2.38542e-015 -1.59028e-015 1.27222e-014 6.36111e-015 -7.95139e-016 -3.18055e-015 3.18055e-015 -0 3.18055e-015 4.77083e-015 2.38542e-015 6.36111e-015 2.38542e-015 -1.59028e-015 1.27222e-014 6.36111e-015 -7.95139e-016 3.18055e-015 4.77083e-015 2.38542e-015 6.36111e-015 2.38542e-015 -1.59028e-015 1.27222e-014 6.36111e-015 -7.95139e-016 59.4689 -43.9596 82.3991 0.554351 69.9581 2.25127 4.23843 18.3241 1.04241 -66.3201 -37.8077 -89.2535 -0.580689 69.0654 -2.30948 -5.20283 24.8091 -0.520755 
0.309944 -3.70721 -77.1001 -0 -63.0022 -0 0 2.79923 -0 0 5.59846 -0 0 5.59846 -0 0 30.9996 -0 0.00322397 -0.779378 -0.169865 -0 -1.52629e-005 -0 -74.8197 1.1523 46.745 -0.601316 -1.41207 -65.1954 -12.1095 4.76026 0.283576 -8.94531e-016 -1.19271e-015 3.18055e-015 1.45168e-006 -2.17366e-006 -1.84834e-006 2.98177e-016 -1.19271e-015 -3.18055e-015 -8.94531e-016 -1.19271e-015 3.18055e-015 -1.19271e-015 3.47873e-016 3.18055e-015 1.45168e-006 -2.17366e-006 -1.84834e-006 1.78906e-015 7.95139e-016 -0 -1.19271e-015 3.47873e-016 3.18055e-015 1.45168e-006 -2.17366e-006 -1.84834e-006 1.78906e-015 7.95139e-016 -0 -8.94531e-016 -1.19271e-015 3.18055e-015 -1.19271e-015 3.47873e-016 3.18055e-015 1.45168e-006 -2.17366e-006 -1.84834e-006 1.78906e-015 7.95139e-016 -0 -1.19271e-015 3.47873e-016 3.18055e-015 1.45168e-006 -2.17366e-006 -1.84834e-006 1.78906e-015 7.95139e-016 -0 5.38177e-008 -3.06184e-006 10.9996 70.2887 27.0547 20.6769 2.23717 3.04156 1.73338 34.4759 31.2018 -1.20064 -6.36111e-015 -2.38542e-015 -2.38542e-015 -9.54166e-015 5.56597e-015 1.59028e-015 -1.59028e-014 0 2.38542e-015 3.18055e-015 -3.18055e-015 -3.18055e-015 -3.18055e-015 6.36111e-015 -7.95139e-016 -1.27222e-014 1.59028e-015 -7.95139e-016 -9.54166e-015 -2.38542e-015 3.97569e-015 -3.18055e-015 6.36111e-015 -7.95139e-016 -1.27222e-014 1.59028e-015 -7.95139e-016 -9.54166e-015 -2.38542e-015 3.97569e-015 3.18055e-015 -3.18055e-015 -3.18055e-015 -3.18055e-015 6.36111e-015 -7.95139e-016 -1.27222e-014 1.59028e-015 -7.95139e-016 -9.54166e-015 -2.38542e-015 3.97569e-015 -3.18055e-015 6.36111e-015 -7.95139e-016 -1.27222e-014 1.59028e-015 -7.95139e-016 -9.54166e-015 -2.38542e-015 3.97569e-015 59.4886 -43.9505 82.4031 0.556642 69.9464 2.81744 4.26116 18.2943 1.03639 -66.3392 -37.7972 -89.2554 -0.583702 69.0535 -2.877 -5.23138 24.7822 -0.513146 
0.309076 -3.70882 -77.0825 -0 -63.0022 -0 0 2.79923 -0 0 5.59846 -0 0 5.59846 -0 0 30.9996 -0 0.000190979 -1.83761 -0.166638 -0 -1.52629e-005 -0 -74.8197 1.1523 46.745 -0.601317 -1.41206 -65.1954 -12.1095 4.76026 0.283571 -9.93923e-017 2.18663e-015 -3.18055e-015 -3.97569e-016 9.93923e-016 -0 -7.95139e-016 3.23025e-015 -0 6.95746e-016 9.93923e-017 -0 -1.19271e-015 8.44835e-016 -3.18055e-015 0 2.93207e-015 -0 -5.96354e-016 2.18663e-015 -3.18055e-015 -1.19271e-015 8.44835e-016 -3.18055e-015 0 2.93207e-015 -0 -5.96354e-016 2.18663e-015 -3.18055e-015 6.95746e-016 9.93923e-017 -0 -1.19271e-015 8.44835e-016 -3.18055e-015 0 2.93207e-015 -0 -5.96354e-016 2.18663e-015 -3.18055e-015 -1.19271e-015 8.44835e-016 -3.18055e-015 0 2.93207e-015 -0 -5.96354e-016 2.18663e-015 -3.18055e-015 5.38177e-008 -3.06184e-006 10.9996 70.2887 27.0547 20.6769 2.21128 3.04822 2.23388 34.2194 31.2772 -1.19831 7.66995e-007 1.88771e-007 1.2442e-006 9.54166e-015 3.97569e-015 2.38542e-015 1.27222e-014 7.15625e-015 -7.95139e-016 3.31043e-032 7.95139e-016 -2.38542e-015 7.66995e-007 1.88771e-007 1.2442e-006 -3.18055e-015 7.95139e-016 4.77083e-015 -3.18055e-015 -7.95139e-016 4.77083e-015 7.66995e-007 1.88771e-007 1.2442e-006 -3.18055e-015 7.95139e-016 4.77083e-015 -3.18055e-015 -7.95139e-016 4.77083e-015 3.31043e-032 7.95139e-016 -2.38542e-015 7.66995e-007 1.88771e-007 1.2442e-006 -3.18055e-015 7.95139e-016 4.77083e-015 -3.18055e-015 -7.95139e-016 4.77083e-015 7.66995e-007 1.88771e-007 1.2442e-006 -3.18055e-015 7.95139e-016 4.77083e-015 -3.18055e-015 -7.95139e-016 4.77083e-015 59.5083 -43.9413 82.407 0.558837 69.9346 3.38377 4.28373 18.2645 1.0304 -66.3583 -37.7867 -89.2572 -0.586729 69.0415 -3.44462 -5.25986 24.7553 -0.505538 
